<svg width="59" height="59" viewBox="0 0 59 59" fill="none" xmlns="http://www.w3.org/2000/svg">
<path d="M27.0417 36.8751C27.0417 39.483 28.0777 41.9842 29.9218 43.8283C31.7659 45.6724 34.2671 46.7084 36.875 46.7084C39.483 46.7084 41.9841 45.6724 43.8282 43.8283C45.6723 41.9842 46.7084 39.483 46.7084 36.8751C46.7084 34.2671 45.6723 31.766 43.8282 29.9219C41.9841 28.0778 39.483 27.0417 36.875 27.0417C34.2671 27.0417 31.7659 28.0778 29.9218 29.9219C28.0777 31.766 27.0417 34.2671 27.0417 36.8751Z" stroke="#101629" stroke-width="3" stroke-linecap="round" stroke-linejoin="round"/>
<path d="M45.4792 45.4792L51.625 51.6251" stroke="#101629" stroke-width="3" stroke-linecap="round" stroke-linejoin="round"/>
<path d="M9.83331 14.75H49.1666" stroke="#101629" stroke-width="3" stroke-linecap="round" stroke-linejoin="round"/>
<path d="M9.83331 29.5H19.6666" stroke="#101629" stroke-width="3" stroke-linecap="round" stroke-linejoin="round"/>
<path d="M9.83331 44.25H19.6666" stroke="#101629" stroke-width="3" stroke-linecap="round" stroke-linejoin="round"/>
</svg>
